<?xml version="1.0" encoding="UTF-8"?>
<mxfile host="app.diagrams.net" modified="2024-04-20T06:59:20.096Z" agent="Mozilla/5.0 (Windows NT 10.0; Win64; x64; rv:125.0) Gecko/20100101 Firefox/125.0" etag="aJbZqNC1iH_tabe7r0uo" version="24.2.5" type="device">
  <diagram id="C5RBs43oDa-KdzZeNtuy" name="Page-1">
    <mxGraphModel dx="4014" dy="2889" grid="1" gridSize="10" guides="1" tooltips="1" connect="1" arrows="1" fold="1" page="1" pageScale="1" pageWidth="827" pageHeight="1169" math="0" shadow="0">
      <root>
        <mxCell id="WIyWlLk6GJQsqaUBKTNV-0" />
        <mxCell id="WIyWlLk6GJQsqaUBKTNV-1" parent="WIyWlLk6GJQsqaUBKTNV-0" />
        <mxCell id="zkfFHV4jXpPFQw0GAbJ--0" value="Utente anonimo" style="swimlane;fontStyle=2;align=center;verticalAlign=top;childLayout=stackLayout;horizontal=1;startSize=26;horizontalStack=0;resizeParent=1;resizeLast=0;collapsible=1;marginBottom=0;rounded=0;shadow=0;strokeWidth=1;" parent="WIyWlLk6GJQsqaUBKTNV-1" vertex="1">
          <mxGeometry x="-390" y="-110" width="160" height="242" as="geometry">
            <mxRectangle x="220" y="120" width="160" height="26" as="alternateBounds" />
          </mxGeometry>
        </mxCell>
        <mxCell id="zkfFHV4jXpPFQw0GAbJ--1" value="+ ID: Integer" style="text;align=left;verticalAlign=top;spacingLeft=4;spacingRight=4;overflow=hidden;rotatable=0;points=[[0,0.5],[1,0.5]];portConstraint=eastwest;" parent="zkfFHV4jXpPFQw0GAbJ--0" vertex="1">
          <mxGeometry y="26" width="160" height="26" as="geometry" />
        </mxCell>
        <mxCell id="zkfFHV4jXpPFQw0GAbJ--4" value="" style="line;html=1;strokeWidth=1;align=left;verticalAlign=middle;spacingTop=-1;spacingLeft=3;spacingRight=3;rotatable=0;labelPosition=right;points=[];portConstraint=eastwest;" parent="zkfFHV4jXpPFQw0GAbJ--0" vertex="1">
          <mxGeometry y="52" width="160" height="8" as="geometry" />
        </mxCell>
        <mxCell id="zNbjggIn-LUsoocqGlM0-45" value="login()" style="text;align=left;verticalAlign=top;spacingLeft=4;spacingRight=4;overflow=hidden;rotatable=0;points=[[0,0.5],[1,0.5]];portConstraint=eastwest;" parent="zkfFHV4jXpPFQw0GAbJ--0" vertex="1">
          <mxGeometry y="60" width="160" height="26" as="geometry" />
        </mxCell>
        <mxCell id="zNbjggIn-LUsoocqGlM0-46" value="register()" style="text;align=left;verticalAlign=top;spacingLeft=4;spacingRight=4;overflow=hidden;rotatable=0;points=[[0,0.5],[1,0.5]];portConstraint=eastwest;" parent="zkfFHV4jXpPFQw0GAbJ--0" vertex="1">
          <mxGeometry y="86" width="160" height="26" as="geometry" />
        </mxCell>
        <mxCell id="zNbjggIn-LUsoocqGlM0-56" value="newZona()" style="text;align=left;verticalAlign=top;spacingLeft=4;spacingRight=4;overflow=hidden;rotatable=0;points=[[0,0.5],[1,0.5]];portConstraint=eastwest;" parent="zkfFHV4jXpPFQw0GAbJ--0" vertex="1">
          <mxGeometry y="112" width="160" height="26" as="geometry" />
        </mxCell>
        <mxCell id="zNbjggIn-LUsoocqGlM0-57" value="newPercorso()" style="text;align=left;verticalAlign=top;spacingLeft=4;spacingRight=4;overflow=hidden;rotatable=0;points=[[0,0.5],[1,0.5]];portConstraint=eastwest;" parent="zkfFHV4jXpPFQw0GAbJ--0" vertex="1">
          <mxGeometry y="138" width="160" height="26" as="geometry" />
        </mxCell>
        <mxCell id="zNbjggIn-LUsoocqGlM0-58" value="visualizzaEventi()" style="text;align=left;verticalAlign=top;spacingLeft=4;spacingRight=4;overflow=hidden;rotatable=0;points=[[0,0.5],[1,0.5]];portConstraint=eastwest;" parent="zkfFHV4jXpPFQw0GAbJ--0" vertex="1">
          <mxGeometry y="164" width="160" height="26" as="geometry" />
        </mxCell>
        <mxCell id="FFZJWs_gXwAfkZ4UWd3p-1" value="Percorso" style="swimlane;fontStyle=2;align=center;verticalAlign=top;childLayout=stackLayout;horizontal=1;startSize=26;horizontalStack=0;resizeParent=1;resizeLast=0;collapsible=1;marginBottom=0;rounded=0;shadow=0;strokeWidth=1;" parent="WIyWlLk6GJQsqaUBKTNV-1" vertex="1">
          <mxGeometry x="140" y="-140" width="160" height="140" as="geometry">
            <mxRectangle x="220" y="120" width="160" height="26" as="alternateBounds" />
          </mxGeometry>
        </mxCell>
        <mxCell id="FFZJWs_gXwAfkZ4UWd3p-2" value="+ ID: Integer" style="text;align=left;verticalAlign=top;spacingLeft=4;spacingRight=4;overflow=hidden;rotatable=0;points=[[0,0.5],[1,0.5]];portConstraint=eastwest;" parent="FFZJWs_gXwAfkZ4UWd3p-1" vertex="1">
          <mxGeometry y="26" width="160" height="26" as="geometry" />
        </mxCell>
        <mxCell id="zNbjggIn-LUsoocqGlM0-65" value="+ IdUtente: Integer" style="text;align=left;verticalAlign=top;spacingLeft=4;spacingRight=4;overflow=hidden;rotatable=0;points=[[0,0.5],[1,0.5]];portConstraint=eastwest;" parent="FFZJWs_gXwAfkZ4UWd3p-1" vertex="1">
          <mxGeometry y="52" width="160" height="26" as="geometry" />
        </mxCell>
        <mxCell id="zNbjggIn-LUsoocqGlM0-66" value="+ Coordinate: String" style="text;align=left;verticalAlign=top;spacingLeft=4;spacingRight=4;overflow=hidden;rotatable=0;points=[[0,0.5],[1,0.5]];portConstraint=eastwest;" parent="FFZJWs_gXwAfkZ4UWd3p-1" vertex="1">
          <mxGeometry y="78" width="160" height="26" as="geometry" />
        </mxCell>
        <mxCell id="FFZJWs_gXwAfkZ4UWd3p-3" value="" style="line;html=1;strokeWidth=1;align=left;verticalAlign=middle;spacingTop=-1;spacingLeft=3;spacingRight=3;rotatable=0;labelPosition=right;points=[];portConstraint=eastwest;" parent="FFZJWs_gXwAfkZ4UWd3p-1" vertex="1">
          <mxGeometry y="104" width="160" height="8" as="geometry" />
        </mxCell>
        <mxCell id="zNbjggIn-LUsoocqGlM0-47" value="calculatePath()" style="text;align=left;verticalAlign=top;spacingLeft=4;spacingRight=4;overflow=hidden;rotatable=0;points=[[0,0.5],[1,0.5]];portConstraint=eastwest;" parent="FFZJWs_gXwAfkZ4UWd3p-1" vertex="1">
          <mxGeometry y="112" width="160" height="26" as="geometry" />
        </mxCell>
        <mxCell id="FFZJWs_gXwAfkZ4UWd3p-6" value="Utente Autenticato" style="swimlane;fontStyle=2;align=center;verticalAlign=top;childLayout=stackLayout;horizontal=1;startSize=26;horizontalStack=0;resizeParent=1;resizeLast=0;collapsible=1;marginBottom=0;rounded=0;shadow=0;strokeWidth=1;" parent="WIyWlLk6GJQsqaUBKTNV-1" vertex="1">
          <mxGeometry x="-390" y="248" width="160" height="130" as="geometry">
            <mxRectangle x="60" y="310" width="160" height="26" as="alternateBounds" />
          </mxGeometry>
        </mxCell>
        <mxCell id="FFZJWs_gXwAfkZ4UWd3p-7" value="- auth_token" style="text;align=left;verticalAlign=top;spacingLeft=4;spacingRight=4;overflow=hidden;rotatable=0;points=[[0,0.5],[1,0.5]];portConstraint=eastwest;" parent="FFZJWs_gXwAfkZ4UWd3p-6" vertex="1">
          <mxGeometry y="26" width="160" height="26" as="geometry" />
        </mxCell>
        <mxCell id="FFZJWs_gXwAfkZ4UWd3p-8" value="" style="line;html=1;strokeWidth=1;align=left;verticalAlign=middle;spacingTop=-1;spacingLeft=3;spacingRight=3;rotatable=0;labelPosition=right;points=[];portConstraint=eastwest;" parent="FFZJWs_gXwAfkZ4UWd3p-6" vertex="1">
          <mxGeometry y="52" width="160" height="8" as="geometry" />
        </mxCell>
        <mxCell id="FFZJWs_gXwAfkZ4UWd3p-19" value="deauthenticate()" style="text;align=left;verticalAlign=top;spacingLeft=4;spacingRight=4;overflow=hidden;rotatable=0;points=[[0,0.5],[1,0.5]];portConstraint=eastwest;" parent="FFZJWs_gXwAfkZ4UWd3p-6" vertex="1">
          <mxGeometry y="60" width="160" height="26" as="geometry" />
        </mxCell>
        <mxCell id="FFZJWs_gXwAfkZ4UWd3p-9" value="" style="endArrow=block;html=1;rounded=0;exitX=0.5;exitY=0;exitDx=0;exitDy=0;entryX=0.5;entryY=1;entryDx=0;entryDy=0;endFill=0;strokeWidth=1;" parent="WIyWlLk6GJQsqaUBKTNV-1" source="FFZJWs_gXwAfkZ4UWd3p-6" target="zkfFHV4jXpPFQw0GAbJ--0" edge="1">
          <mxGeometry width="50" height="50" relative="1" as="geometry">
            <mxPoint x="-210" y="90" as="sourcePoint" />
            <mxPoint x="-160" y="40" as="targetPoint" />
          </mxGeometry>
        </mxCell>
        <mxCell id="FFZJWs_gXwAfkZ4UWd3p-11" value="Utente autorizzato" style="swimlane;fontStyle=2;align=center;verticalAlign=top;childLayout=stackLayout;horizontal=1;startSize=26;horizontalStack=0;resizeParent=1;resizeLast=0;collapsible=1;marginBottom=0;rounded=0;shadow=0;strokeWidth=1;" parent="WIyWlLk6GJQsqaUBKTNV-1" vertex="1">
          <mxGeometry x="340" y="471.02" width="160" height="268" as="geometry">
            <mxRectangle x="220" y="120" width="160" height="26" as="alternateBounds" />
          </mxGeometry>
        </mxCell>
        <mxCell id="FFZJWs_gXwAfkZ4UWd3p-12" value="+ ID: Integer" style="text;align=left;verticalAlign=top;spacingLeft=4;spacingRight=4;overflow=hidden;rotatable=0;points=[[0,0.5],[1,0.5]];portConstraint=eastwest;" parent="FFZJWs_gXwAfkZ4UWd3p-11" vertex="1">
          <mxGeometry y="26" width="160" height="26" as="geometry" />
        </mxCell>
        <mxCell id="FFZJWs_gXwAfkZ4UWd3p-13" value="" style="line;html=1;strokeWidth=1;align=left;verticalAlign=middle;spacingTop=-1;spacingLeft=3;spacingRight=3;rotatable=0;labelPosition=right;points=[];portConstraint=eastwest;" parent="FFZJWs_gXwAfkZ4UWd3p-11" vertex="1">
          <mxGeometry y="52" width="160" height="8" as="geometry" />
        </mxCell>
        <mxCell id="FFZJWs_gXwAfkZ4UWd3p-20" value="authenticate()" style="text;align=left;verticalAlign=top;spacingLeft=4;spacingRight=4;overflow=hidden;rotatable=0;points=[[0,0.5],[1,0.5]];portConstraint=eastwest;" parent="FFZJWs_gXwAfkZ4UWd3p-11" vertex="1">
          <mxGeometry y="60" width="160" height="26" as="geometry" />
        </mxCell>
        <mxCell id="FFZJWs_gXwAfkZ4UWd3p-21" value="deauthenticate()" style="text;align=left;verticalAlign=top;spacingLeft=4;spacingRight=4;overflow=hidden;rotatable=0;points=[[0,0.5],[1,0.5]];portConstraint=eastwest;" parent="FFZJWs_gXwAfkZ4UWd3p-11" vertex="1">
          <mxGeometry y="86" width="160" height="26" as="geometry" />
        </mxCell>
        <mxCell id="FFZJWs_gXwAfkZ4UWd3p-22" value="aggiungiEvento()" style="text;align=left;verticalAlign=top;spacingLeft=4;spacingRight=4;overflow=hidden;rotatable=0;points=[[0,0.5],[1,0.5]];portConstraint=eastwest;" parent="FFZJWs_gXwAfkZ4UWd3p-11" vertex="1">
          <mxGeometry y="112" width="160" height="26" as="geometry" />
        </mxCell>
        <mxCell id="zNbjggIn-LUsoocqGlM0-24" value="modificaEvento(IdEvento)" style="text;align=left;verticalAlign=top;spacingLeft=4;spacingRight=4;overflow=hidden;rotatable=0;points=[[0,0.5],[1,0.5]];portConstraint=eastwest;" parent="FFZJWs_gXwAfkZ4UWd3p-11" vertex="1">
          <mxGeometry y="138" width="160" height="26" as="geometry" />
        </mxCell>
        <mxCell id="zNbjggIn-LUsoocqGlM0-25" value="cancellaEvento(IdEvento)" style="text;align=left;verticalAlign=top;spacingLeft=4;spacingRight=4;overflow=hidden;rotatable=0;points=[[0,0.5],[1,0.5]];portConstraint=eastwest;" parent="FFZJWs_gXwAfkZ4UWd3p-11" vertex="1">
          <mxGeometry y="164" width="160" height="26" as="geometry" />
        </mxCell>
        <mxCell id="zNbjggIn-LUsoocqGlM0-26" value="aggiongiSottocategoria()" style="text;align=left;verticalAlign=top;spacingLeft=4;spacingRight=4;overflow=hidden;rotatable=0;points=[[0,0.5],[1,0.5]];portConstraint=eastwest;" parent="FFZJWs_gXwAfkZ4UWd3p-11" vertex="1">
          <mxGeometry y="190" width="160" height="26" as="geometry" />
        </mxCell>
        <mxCell id="zNbjggIn-LUsoocqGlM0-48" value="modificaSottocategoria()" style="text;align=left;verticalAlign=top;spacingLeft=4;spacingRight=4;overflow=hidden;rotatable=0;points=[[0,0.5],[1,0.5]];portConstraint=eastwest;" parent="FFZJWs_gXwAfkZ4UWd3p-11" vertex="1">
          <mxGeometry y="216" width="160" height="26" as="geometry" />
        </mxCell>
        <mxCell id="zNbjggIn-LUsoocqGlM0-49" value="eliminaSottocategoria()" style="text;align=left;verticalAlign=top;spacingLeft=4;spacingRight=4;overflow=hidden;rotatable=0;points=[[0,0.5],[1,0.5]];portConstraint=eastwest;" parent="FFZJWs_gXwAfkZ4UWd3p-11" vertex="1">
          <mxGeometry y="242" width="160" height="26" as="geometry" />
        </mxCell>
        <mxCell id="FFZJWs_gXwAfkZ4UWd3p-17" value="" style="rounded=0;orthogonalLoop=1;jettySize=auto;html=1;exitX=1;exitY=0.5;exitDx=0;exitDy=0;entryX=0;entryY=0.5;entryDx=0;entryDy=0;endArrow=none;endFill=0;" parent="WIyWlLk6GJQsqaUBKTNV-1" source="zkfFHV4jXpPFQw0GAbJ--1" edge="1">
          <mxGeometry relative="1" as="geometry">
            <mxPoint x="140" y="-66.99999999999977" as="targetPoint" />
          </mxGeometry>
        </mxCell>
        <mxCell id="FFZJWs_gXwAfkZ4UWd3p-41" value="1" style="edgeLabel;html=1;align=center;verticalAlign=middle;resizable=0;points=[];" parent="FFZJWs_gXwAfkZ4UWd3p-17" vertex="1" connectable="0">
          <mxGeometry x="-0.681" y="-1" relative="1" as="geometry">
            <mxPoint as="offset" />
          </mxGeometry>
        </mxCell>
        <mxCell id="FFZJWs_gXwAfkZ4UWd3p-42" value="Molti" style="edgeLabel;html=1;align=center;verticalAlign=middle;resizable=0;points=[];" parent="FFZJWs_gXwAfkZ4UWd3p-17" vertex="1" connectable="0">
          <mxGeometry x="0.6704" y="-3" relative="1" as="geometry">
            <mxPoint as="offset" />
          </mxGeometry>
        </mxCell>
        <mxCell id="FFZJWs_gXwAfkZ4UWd3p-23" value="Evento" style="swimlane;fontStyle=2;align=center;verticalAlign=top;childLayout=stackLayout;horizontal=1;startSize=26;horizontalStack=0;resizeParent=1;resizeLast=0;collapsible=1;marginBottom=0;rounded=0;shadow=0;strokeWidth=1;" parent="WIyWlLk6GJQsqaUBKTNV-1" vertex="1">
          <mxGeometry x="217" y="60" width="160" height="220" as="geometry">
            <mxRectangle x="220" y="120" width="160" height="26" as="alternateBounds" />
          </mxGeometry>
        </mxCell>
        <mxCell id="FFZJWs_gXwAfkZ4UWd3p-24" value="+ ID: Integer" style="text;align=left;verticalAlign=top;spacingLeft=4;spacingRight=4;overflow=hidden;rotatable=0;points=[[0,0.5],[1,0.5]];portConstraint=eastwest;" parent="FFZJWs_gXwAfkZ4UWd3p-23" vertex="1">
          <mxGeometry y="26" width="160" height="26" as="geometry" />
        </mxCell>
        <mxCell id="zNbjggIn-LUsoocqGlM0-15" value="&amp;nbsp;+ Info: String" style="text;html=1;align=left;verticalAlign=middle;whiteSpace=wrap;rounded=0;" parent="FFZJWs_gXwAfkZ4UWd3p-23" vertex="1">
          <mxGeometry y="52" width="160" height="30" as="geometry" />
        </mxCell>
        <mxCell id="zNbjggIn-LUsoocqGlM0-16" value="&amp;nbsp;+ DataInizio: Date" style="text;html=1;align=left;verticalAlign=middle;whiteSpace=wrap;rounded=0;" parent="FFZJWs_gXwAfkZ4UWd3p-23" vertex="1">
          <mxGeometry y="82" width="160" height="30" as="geometry" />
        </mxCell>
        <mxCell id="zNbjggIn-LUsoocqGlM0-17" value="&amp;nbsp;+ DataFine: Date" style="text;html=1;align=left;verticalAlign=middle;whiteSpace=wrap;rounded=0;" parent="FFZJWs_gXwAfkZ4UWd3p-23" vertex="1">
          <mxGeometry y="112" width="160" height="30" as="geometry" />
        </mxCell>
        <mxCell id="xwgDeRf7Foe9UnqN_Oi5-0" value="&amp;nbsp;+ Categoria:Categoria" style="text;html=1;align=left;verticalAlign=middle;whiteSpace=wrap;rounded=0;" vertex="1" parent="FFZJWs_gXwAfkZ4UWd3p-23">
          <mxGeometry y="142" width="160" height="30" as="geometry" />
        </mxCell>
        <mxCell id="FFZJWs_gXwAfkZ4UWd3p-25" value="" style="line;html=1;strokeWidth=1;align=left;verticalAlign=middle;spacingTop=-1;spacingLeft=3;spacingRight=3;rotatable=0;labelPosition=right;points=[];portConstraint=eastwest;" parent="FFZJWs_gXwAfkZ4UWd3p-23" vertex="1">
          <mxGeometry y="172" width="160" height="8" as="geometry" />
        </mxCell>
        <mxCell id="zNbjggIn-LUsoocqGlM0-8" value="" style="rounded=0;orthogonalLoop=1;jettySize=auto;html=1;exitX=0.5;exitY=0;exitDx=0;exitDy=0;entryX=0.5;entryY=1;entryDx=0;entryDy=0;endArrow=none;endFill=0;" parent="WIyWlLk6GJQsqaUBKTNV-1" source="FFZJWs_gXwAfkZ4UWd3p-11" target="FFZJWs_gXwAfkZ4UWd3p-23" edge="1">
          <mxGeometry relative="1" as="geometry">
            <mxPoint x="290" y="349" as="sourcePoint" />
            <mxPoint x="727.0000000000005" y="552" as="targetPoint" />
          </mxGeometry>
        </mxCell>
        <mxCell id="zNbjggIn-LUsoocqGlM0-9" value="1" style="edgeLabel;html=1;align=center;verticalAlign=middle;resizable=0;points=[];" parent="zNbjggIn-LUsoocqGlM0-8" vertex="1" connectable="0">
          <mxGeometry x="-0.681" y="-1" relative="1" as="geometry">
            <mxPoint as="offset" />
          </mxGeometry>
        </mxCell>
        <mxCell id="zNbjggIn-LUsoocqGlM0-10" value="Molti" style="edgeLabel;html=1;align=center;verticalAlign=middle;resizable=0;points=[];" parent="zNbjggIn-LUsoocqGlM0-8" vertex="1" connectable="0">
          <mxGeometry x="0.6704" y="-3" relative="1" as="geometry">
            <mxPoint as="offset" />
          </mxGeometry>
        </mxCell>
        <mxCell id="zNbjggIn-LUsoocqGlM0-18" value="Utente amministratore" style="swimlane;fontStyle=2;align=center;verticalAlign=top;childLayout=stackLayout;horizontal=1;startSize=26;horizontalStack=0;resizeParent=1;resizeLast=0;collapsible=1;marginBottom=0;rounded=0;shadow=0;strokeWidth=1;" parent="WIyWlLk6GJQsqaUBKTNV-1" vertex="1">
          <mxGeometry x="-170" y="633.02" width="160" height="190" as="geometry">
            <mxRectangle x="220" y="120" width="160" height="26" as="alternateBounds" />
          </mxGeometry>
        </mxCell>
        <mxCell id="zNbjggIn-LUsoocqGlM0-19" value="+ ID: Integer" style="text;align=left;verticalAlign=top;spacingLeft=4;spacingRight=4;overflow=hidden;rotatable=0;points=[[0,0.5],[1,0.5]];portConstraint=eastwest;" parent="zNbjggIn-LUsoocqGlM0-18" vertex="1">
          <mxGeometry y="26" width="160" height="26" as="geometry" />
        </mxCell>
        <mxCell id="zNbjggIn-LUsoocqGlM0-20" value="" style="line;html=1;strokeWidth=1;align=left;verticalAlign=middle;spacingTop=-1;spacingLeft=3;spacingRight=3;rotatable=0;labelPosition=right;points=[];portConstraint=eastwest;" parent="zNbjggIn-LUsoocqGlM0-18" vertex="1">
          <mxGeometry y="52" width="160" height="8" as="geometry" />
        </mxCell>
        <mxCell id="zNbjggIn-LUsoocqGlM0-21" value="authenticate()" style="text;align=left;verticalAlign=top;spacingLeft=4;spacingRight=4;overflow=hidden;rotatable=0;points=[[0,0.5],[1,0.5]];portConstraint=eastwest;" parent="zNbjggIn-LUsoocqGlM0-18" vertex="1">
          <mxGeometry y="60" width="160" height="26" as="geometry" />
        </mxCell>
        <mxCell id="zNbjggIn-LUsoocqGlM0-22" value="deauthenticate()" style="text;align=left;verticalAlign=top;spacingLeft=4;spacingRight=4;overflow=hidden;rotatable=0;points=[[0,0.5],[1,0.5]];portConstraint=eastwest;" parent="zNbjggIn-LUsoocqGlM0-18" vertex="1">
          <mxGeometry y="86" width="160" height="26" as="geometry" />
        </mxCell>
        <mxCell id="zNbjggIn-LUsoocqGlM0-36" value="newPolicy()" style="text;align=left;verticalAlign=top;spacingLeft=4;spacingRight=4;overflow=hidden;rotatable=0;points=[[0,0.5],[1,0.5]];portConstraint=eastwest;" parent="zNbjggIn-LUsoocqGlM0-18" vertex="1">
          <mxGeometry y="112" width="160" height="26" as="geometry" />
        </mxCell>
        <mxCell id="zNbjggIn-LUsoocqGlM0-37" value="deletePolicy()" style="text;align=left;verticalAlign=top;spacingLeft=4;spacingRight=4;overflow=hidden;rotatable=0;points=[[0,0.5],[1,0.5]];portConstraint=eastwest;" parent="zNbjggIn-LUsoocqGlM0-18" vertex="1">
          <mxGeometry y="138" width="160" height="26" as="geometry" />
        </mxCell>
        <mxCell id="zNbjggIn-LUsoocqGlM0-28" value="Zona d&#39;interesse" style="swimlane;fontStyle=2;align=center;verticalAlign=top;childLayout=stackLayout;horizontal=1;startSize=26;horizontalStack=0;resizeParent=1;resizeLast=0;collapsible=1;marginBottom=0;rounded=0;shadow=0;strokeWidth=1;" parent="WIyWlLk6GJQsqaUBKTNV-1" vertex="1">
          <mxGeometry y="-360" width="160" height="140" as="geometry">
            <mxRectangle x="220" y="120" width="160" height="26" as="alternateBounds" />
          </mxGeometry>
        </mxCell>
        <mxCell id="zNbjggIn-LUsoocqGlM0-29" value="+ ID: Integer" style="text;align=left;verticalAlign=top;spacingLeft=4;spacingRight=4;overflow=hidden;rotatable=0;points=[[0,0.5],[1,0.5]];portConstraint=eastwest;" parent="zNbjggIn-LUsoocqGlM0-28" vertex="1">
          <mxGeometry y="26" width="160" height="26" as="geometry" />
        </mxCell>
        <mxCell id="zNbjggIn-LUsoocqGlM0-32" value="+ IdUtente: Integer" style="text;align=left;verticalAlign=top;spacingLeft=4;spacingRight=4;overflow=hidden;rotatable=0;points=[[0,0.5],[1,0.5]];portConstraint=eastwest;" parent="zNbjggIn-LUsoocqGlM0-28" vertex="1">
          <mxGeometry y="52" width="160" height="26" as="geometry" />
        </mxCell>
        <mxCell id="zNbjggIn-LUsoocqGlM0-63" value="+ Coordinate: String" style="text;align=left;verticalAlign=top;spacingLeft=4;spacingRight=4;overflow=hidden;rotatable=0;points=[[0,0.5],[1,0.5]];portConstraint=eastwest;" parent="zNbjggIn-LUsoocqGlM0-28" vertex="1">
          <mxGeometry y="78" width="160" height="26" as="geometry" />
        </mxCell>
        <mxCell id="zNbjggIn-LUsoocqGlM0-30" value="" style="line;html=1;strokeWidth=1;align=left;verticalAlign=middle;spacingTop=-1;spacingLeft=3;spacingRight=3;rotatable=0;labelPosition=right;points=[];portConstraint=eastwest;" parent="zNbjggIn-LUsoocqGlM0-28" vertex="1">
          <mxGeometry y="104" width="160" height="8" as="geometry" />
        </mxCell>
        <mxCell id="zNbjggIn-LUsoocqGlM0-33" value="" style="rounded=0;orthogonalLoop=1;jettySize=auto;html=1;exitX=1.026;exitY=0.099;exitDx=0;exitDy=0;entryX=0;entryY=0.5;entryDx=0;entryDy=0;endArrow=none;endFill=0;exitPerimeter=0;" parent="WIyWlLk6GJQsqaUBKTNV-1" source="zkfFHV4jXpPFQw0GAbJ--0" target="zNbjggIn-LUsoocqGlM0-28" edge="1">
          <mxGeometry relative="1" as="geometry">
            <mxPoint x="-220" y="-90" as="sourcePoint" />
            <mxPoint x="150" y="-86" as="targetPoint" />
          </mxGeometry>
        </mxCell>
        <mxCell id="zNbjggIn-LUsoocqGlM0-34" value="1" style="edgeLabel;html=1;align=center;verticalAlign=middle;resizable=0;points=[];" parent="zNbjggIn-LUsoocqGlM0-33" vertex="1" connectable="0">
          <mxGeometry x="-0.681" y="-1" relative="1" as="geometry">
            <mxPoint as="offset" />
          </mxGeometry>
        </mxCell>
        <mxCell id="zNbjggIn-LUsoocqGlM0-35" value="Molti" style="edgeLabel;html=1;align=center;verticalAlign=middle;resizable=0;points=[];" parent="zNbjggIn-LUsoocqGlM0-33" vertex="1" connectable="0">
          <mxGeometry x="0.6704" y="-3" relative="1" as="geometry">
            <mxPoint as="offset" />
          </mxGeometry>
        </mxCell>
        <mxCell id="zNbjggIn-LUsoocqGlM0-38" value="Policy" style="swimlane;fontStyle=2;align=center;verticalAlign=top;childLayout=stackLayout;horizontal=1;startSize=26;horizontalStack=0;resizeParent=1;resizeLast=0;collapsible=1;marginBottom=0;rounded=0;shadow=0;strokeWidth=1;" parent="WIyWlLk6GJQsqaUBKTNV-1" vertex="1">
          <mxGeometry x="100" y="678.71" width="160" height="130" as="geometry">
            <mxRectangle x="60" y="310" width="160" height="26" as="alternateBounds" />
          </mxGeometry>
        </mxCell>
        <mxCell id="zNbjggIn-LUsoocqGlM0-39" value="+ ID: Integer" style="text;align=left;verticalAlign=top;spacingLeft=4;spacingRight=4;overflow=hidden;rotatable=0;points=[[0,0.5],[1,0.5]];portConstraint=eastwest;" parent="zNbjggIn-LUsoocqGlM0-38" vertex="1">
          <mxGeometry y="26" width="160" height="26" as="geometry" />
        </mxCell>
        <mxCell id="zNbjggIn-LUsoocqGlM0-62" value="**Da definire**" style="text;align=left;verticalAlign=top;spacingLeft=4;spacingRight=4;overflow=hidden;rotatable=0;points=[[0,0.5],[1,0.5]];portConstraint=eastwest;" parent="zNbjggIn-LUsoocqGlM0-38" vertex="1">
          <mxGeometry y="52" width="160" height="26" as="geometry" />
        </mxCell>
        <mxCell id="zNbjggIn-LUsoocqGlM0-40" value="" style="line;html=1;strokeWidth=1;align=left;verticalAlign=middle;spacingTop=-1;spacingLeft=3;spacingRight=3;rotatable=0;labelPosition=right;points=[];portConstraint=eastwest;" parent="zNbjggIn-LUsoocqGlM0-38" vertex="1">
          <mxGeometry y="78" width="160" height="8" as="geometry" />
        </mxCell>
        <mxCell id="zNbjggIn-LUsoocqGlM0-42" value="" style="rounded=0;orthogonalLoop=1;jettySize=auto;html=1;exitX=1.005;exitY=0.07;exitDx=0;exitDy=0;endArrow=none;endFill=0;exitPerimeter=0;" parent="WIyWlLk6GJQsqaUBKTNV-1" source="zNbjggIn-LUsoocqGlM0-22" edge="1">
          <mxGeometry relative="1" as="geometry">
            <mxPoint x="10" y="683.02" as="sourcePoint" />
            <mxPoint x="100" y="732.02" as="targetPoint" />
          </mxGeometry>
        </mxCell>
        <mxCell id="zNbjggIn-LUsoocqGlM0-43" value="1" style="edgeLabel;html=1;align=center;verticalAlign=middle;resizable=0;points=[];" parent="zNbjggIn-LUsoocqGlM0-42" vertex="1" connectable="0">
          <mxGeometry x="-0.681" y="-1" relative="1" as="geometry">
            <mxPoint as="offset" />
          </mxGeometry>
        </mxCell>
        <mxCell id="zNbjggIn-LUsoocqGlM0-44" value="Molti" style="edgeLabel;html=1;align=center;verticalAlign=middle;resizable=0;points=[];" parent="zNbjggIn-LUsoocqGlM0-42" vertex="1" connectable="0">
          <mxGeometry x="0.6704" y="-3" relative="1" as="geometry">
            <mxPoint as="offset" />
          </mxGeometry>
        </mxCell>
        <mxCell id="zNbjggIn-LUsoocqGlM0-59" value="" style="rounded=0;orthogonalLoop=1;jettySize=auto;html=1;exitX=1;exitY=0.25;exitDx=0;exitDy=0;entryX=-0.006;entryY=0.05;entryDx=0;entryDy=0;endArrow=none;endFill=0;entryPerimeter=0;" parent="WIyWlLk6GJQsqaUBKTNV-1" source="zkfFHV4jXpPFQw0GAbJ--0" target="FFZJWs_gXwAfkZ4UWd3p-23" edge="1">
          <mxGeometry relative="1" as="geometry">
            <mxPoint x="-210" y="9" as="sourcePoint" />
            <mxPoint x="160" y="13.000000000000227" as="targetPoint" />
          </mxGeometry>
        </mxCell>
        <mxCell id="zNbjggIn-LUsoocqGlM0-60" value="Molti" style="edgeLabel;html=1;align=center;verticalAlign=middle;resizable=0;points=[];" parent="zNbjggIn-LUsoocqGlM0-59" vertex="1" connectable="0">
          <mxGeometry x="-0.681" y="-1" relative="1" as="geometry">
            <mxPoint as="offset" />
          </mxGeometry>
        </mxCell>
        <mxCell id="zNbjggIn-LUsoocqGlM0-67" value="Competenza" style="swimlane;fontStyle=2;align=center;verticalAlign=top;childLayout=stackLayout;horizontal=1;startSize=26;horizontalStack=0;resizeParent=1;resizeLast=0;collapsible=1;marginBottom=0;rounded=0;shadow=0;strokeWidth=1;" parent="WIyWlLk6GJQsqaUBKTNV-1" vertex="1">
          <mxGeometry x="79.39999999999998" y="962.02" width="160" height="130" as="geometry">
            <mxRectangle x="60" y="310" width="160" height="26" as="alternateBounds" />
          </mxGeometry>
        </mxCell>
        <mxCell id="zNbjggIn-LUsoocqGlM0-68" value="+ ID: Integer" style="text;align=left;verticalAlign=top;spacingLeft=4;spacingRight=4;overflow=hidden;rotatable=0;points=[[0,0.5],[1,0.5]];portConstraint=eastwest;" parent="zNbjggIn-LUsoocqGlM0-67" vertex="1">
          <mxGeometry y="26" width="160" height="26" as="geometry" />
        </mxCell>
        <mxCell id="zNbjggIn-LUsoocqGlM0-74" value="+ IdUtente: Integer" style="text;align=left;verticalAlign=top;spacingLeft=4;spacingRight=4;overflow=hidden;rotatable=0;points=[[0,0.5],[1,0.5]];portConstraint=eastwest;" parent="zNbjggIn-LUsoocqGlM0-67" vertex="1">
          <mxGeometry y="52" width="160" height="26" as="geometry" />
        </mxCell>
        <mxCell id="zNbjggIn-LUsoocqGlM0-69" value="**Da definire**" style="text;align=left;verticalAlign=top;spacingLeft=4;spacingRight=4;overflow=hidden;rotatable=0;points=[[0,0.5],[1,0.5]];portConstraint=eastwest;" parent="zNbjggIn-LUsoocqGlM0-67" vertex="1">
          <mxGeometry y="78" width="160" height="26" as="geometry" />
        </mxCell>
        <mxCell id="zNbjggIn-LUsoocqGlM0-70" value="" style="line;html=1;strokeWidth=1;align=left;verticalAlign=middle;spacingTop=-1;spacingLeft=3;spacingRight=3;rotatable=0;labelPosition=right;points=[];portConstraint=eastwest;" parent="zNbjggIn-LUsoocqGlM0-67" vertex="1">
          <mxGeometry y="104" width="160" height="8" as="geometry" />
        </mxCell>
        <mxCell id="zNbjggIn-LUsoocqGlM0-71" value="" style="rounded=0;orthogonalLoop=1;jettySize=auto;html=1;entryX=0.5;entryY=0;entryDx=0;entryDy=0;endArrow=none;endFill=0;exitX=1;exitY=0.5;exitDx=0;exitDy=0;" parent="WIyWlLk6GJQsqaUBKTNV-1" source="zNbjggIn-LUsoocqGlM0-36" target="zNbjggIn-LUsoocqGlM0-67" edge="1">
          <mxGeometry relative="1" as="geometry">
            <mxPoint x="-170" y="733.02" as="sourcePoint" />
            <mxPoint x="169" y="839.02" as="targetPoint" />
          </mxGeometry>
        </mxCell>
        <mxCell id="zNbjggIn-LUsoocqGlM0-72" value="1" style="edgeLabel;html=1;align=center;verticalAlign=middle;resizable=0;points=[];" parent="zNbjggIn-LUsoocqGlM0-71" vertex="1" connectable="0">
          <mxGeometry x="-0.681" y="-1" relative="1" as="geometry">
            <mxPoint as="offset" />
          </mxGeometry>
        </mxCell>
        <mxCell id="zNbjggIn-LUsoocqGlM0-73" value="Molti" style="edgeLabel;html=1;align=center;verticalAlign=middle;resizable=0;points=[];" parent="zNbjggIn-LUsoocqGlM0-71" vertex="1" connectable="0">
          <mxGeometry x="0.6704" y="-3" relative="1" as="geometry">
            <mxPoint as="offset" />
          </mxGeometry>
        </mxCell>
        <mxCell id="lhMbLvEp6yjlirxGs6l1-14" value="" style="rounded=0;orthogonalLoop=1;jettySize=auto;html=1;entryX=0.5;entryY=0;entryDx=0;entryDy=0;endArrow=none;endFill=0;exitX=0.5;exitY=1;exitDx=0;exitDy=0;" parent="WIyWlLk6GJQsqaUBKTNV-1" source="FFZJWs_gXwAfkZ4UWd3p-11" target="zNbjggIn-LUsoocqGlM0-67" edge="1">
          <mxGeometry relative="1" as="geometry">
            <mxPoint y="768.02" as="sourcePoint" />
            <mxPoint x="169" y="972.02" as="targetPoint" />
          </mxGeometry>
        </mxCell>
        <mxCell id="lhMbLvEp6yjlirxGs6l1-15" value="1" style="edgeLabel;html=1;align=center;verticalAlign=middle;resizable=0;points=[];" parent="lhMbLvEp6yjlirxGs6l1-14" vertex="1" connectable="0">
          <mxGeometry x="-0.681" y="-1" relative="1" as="geometry">
            <mxPoint as="offset" />
          </mxGeometry>
        </mxCell>
        <mxCell id="lhMbLvEp6yjlirxGs6l1-16" value="Molti" style="edgeLabel;html=1;align=center;verticalAlign=middle;resizable=0;points=[];" parent="lhMbLvEp6yjlirxGs6l1-14" vertex="1" connectable="0">
          <mxGeometry x="0.6704" y="-3" relative="1" as="geometry">
            <mxPoint as="offset" />
          </mxGeometry>
        </mxCell>
        <mxCell id="xwgDeRf7Foe9UnqN_Oi5-1" style="rounded=0;orthogonalLoop=1;jettySize=auto;html=1;exitX=0.5;exitY=0;exitDx=0;exitDy=0;entryX=0;entryY=0.5;entryDx=0;entryDy=0;endArrow=none;endFill=0;" edge="1" parent="WIyWlLk6GJQsqaUBKTNV-1" target="xwgDeRf7Foe9UnqN_Oi5-5" source="FFZJWs_gXwAfkZ4UWd3p-11">
          <mxGeometry relative="1" as="geometry">
            <mxPoint x="700" y="252.01999999999998" as="targetPoint" />
            <mxPoint x="600" y="250" as="sourcePoint" />
          </mxGeometry>
        </mxCell>
        <mxCell id="xwgDeRf7Foe9UnqN_Oi5-2" value="1" style="edgeLabel;html=1;align=center;verticalAlign=middle;resizable=0;points=[];" vertex="1" connectable="0" parent="xwgDeRf7Foe9UnqN_Oi5-1">
          <mxGeometry x="-0.54" y="1" relative="1" as="geometry">
            <mxPoint y="-1" as="offset" />
          </mxGeometry>
        </mxCell>
        <mxCell id="xwgDeRf7Foe9UnqN_Oi5-3" value="Molti" style="edgeLabel;html=1;align=center;verticalAlign=middle;resizable=0;points=[];" vertex="1" connectable="0" parent="xwgDeRf7Foe9UnqN_Oi5-1">
          <mxGeometry x="0.5" y="1" relative="1" as="geometry">
            <mxPoint as="offset" />
          </mxGeometry>
        </mxCell>
        <mxCell id="xwgDeRf7Foe9UnqN_Oi5-4" value="Categorie a cui ha accesso" style="edgeLabel;html=1;align=center;verticalAlign=middle;resizable=0;points=[];" vertex="1" connectable="0" parent="xwgDeRf7Foe9UnqN_Oi5-1">
          <mxGeometry x="-0.03" y="-4" relative="1" as="geometry">
            <mxPoint y="-1" as="offset" />
          </mxGeometry>
        </mxCell>
        <mxCell id="xwgDeRf7Foe9UnqN_Oi5-5" value="Categoria" style="swimlane;fontStyle=2;align=center;verticalAlign=top;childLayout=stackLayout;horizontal=1;startSize=26;horizontalStack=0;resizeParent=1;resizeLast=0;collapsible=1;marginBottom=0;rounded=0;shadow=0;strokeWidth=1;" vertex="1" parent="WIyWlLk6GJQsqaUBKTNV-1">
          <mxGeometry x="710" y="249.99999999999997" width="160" height="190" as="geometry">
            <mxRectangle x="220" y="120" width="160" height="26" as="alternateBounds" />
          </mxGeometry>
        </mxCell>
        <mxCell id="xwgDeRf7Foe9UnqN_Oi5-6" value="+ ID: Integer" style="text;align=left;verticalAlign=top;spacingLeft=4;spacingRight=4;overflow=hidden;rotatable=0;points=[[0,0.5],[1,0.5]];portConstraint=eastwest;" vertex="1" parent="xwgDeRf7Foe9UnqN_Oi5-5">
          <mxGeometry y="26" width="160" height="26" as="geometry" />
        </mxCell>
        <mxCell id="xwgDeRf7Foe9UnqN_Oi5-7" value="+ Nome: String" style="text;align=left;verticalAlign=top;spacingLeft=4;spacingRight=4;overflow=hidden;rotatable=0;points=[[0,0.5],[1,0.5]];portConstraint=eastwest;" vertex="1" parent="xwgDeRf7Foe9UnqN_Oi5-5">
          <mxGeometry y="52" width="160" height="26" as="geometry" />
        </mxCell>
        <mxCell id="xwgDeRf7Foe9UnqN_Oi5-8" value="+ Eventi:List&lt;Evento&gt;" style="text;align=left;verticalAlign=top;spacingLeft=4;spacingRight=4;overflow=hidden;rotatable=0;points=[[0,0.5],[1,0.5]];portConstraint=eastwest;" vertex="1" parent="xwgDeRf7Foe9UnqN_Oi5-5">
          <mxGeometry y="78" width="160" height="26" as="geometry" />
        </mxCell>
        <mxCell id="xwgDeRf7Foe9UnqN_Oi5-9" value="" style="line;html=1;strokeWidth=1;align=left;verticalAlign=middle;spacingTop=-1;spacingLeft=3;spacingRight=3;rotatable=0;labelPosition=right;points=[];portConstraint=eastwest;" vertex="1" parent="xwgDeRf7Foe9UnqN_Oi5-5">
          <mxGeometry y="104" width="160" height="8" as="geometry" />
        </mxCell>
        <mxCell id="xwgDeRf7Foe9UnqN_Oi5-10" style="edgeStyle=orthogonalEdgeStyle;rounded=0;orthogonalLoop=1;jettySize=auto;html=1;exitX=1;exitY=0.5;exitDx=0;exitDy=0;entryX=0.5;entryY=1;entryDx=0;entryDy=0;endArrow=none;endFill=0;" edge="1" parent="xwgDeRf7Foe9UnqN_Oi5-5" target="xwgDeRf7Foe9UnqN_Oi5-5">
          <mxGeometry relative="1" as="geometry">
            <Array as="points">
              <mxPoint x="250" y="73" />
              <mxPoint x="250" y="230" />
              <mxPoint x="80" y="230" />
            </Array>
            <mxPoint x="160" y="73" as="sourcePoint" />
          </mxGeometry>
        </mxCell>
        <mxCell id="xwgDeRf7Foe9UnqN_Oi5-11" value="Sottocategoria" style="edgeLabel;html=1;align=center;verticalAlign=middle;resizable=0;points=[];" vertex="1" connectable="0" parent="xwgDeRf7Foe9UnqN_Oi5-10">
          <mxGeometry x="-0.7944" y="1" relative="1" as="geometry">
            <mxPoint as="offset" />
          </mxGeometry>
        </mxCell>
        <mxCell id="xwgDeRf7Foe9UnqN_Oi5-12" value="&lt;div&gt;Supercategoria&lt;/div&gt;" style="edgeLabel;html=1;align=center;verticalAlign=middle;resizable=0;points=[];" vertex="1" connectable="0" parent="xwgDeRf7Foe9UnqN_Oi5-10">
          <mxGeometry x="0.8458" y="-4" relative="1" as="geometry">
            <mxPoint x="-4" y="-25" as="offset" />
          </mxGeometry>
        </mxCell>
        <mxCell id="xwgDeRf7Foe9UnqN_Oi5-13" value="nuovaSottocategoria()" style="text;align=left;verticalAlign=top;spacingLeft=4;spacingRight=4;overflow=hidden;rotatable=0;points=[[0,0.5],[1,0.5]];portConstraint=eastwest;" vertex="1" parent="xwgDeRf7Foe9UnqN_Oi5-5">
          <mxGeometry y="112" width="160" height="26" as="geometry" />
        </mxCell>
        <mxCell id="xwgDeRf7Foe9UnqN_Oi5-14" value="eliminaSottocategoria()" style="text;align=left;verticalAlign=top;spacingLeft=4;spacingRight=4;overflow=hidden;rotatable=0;points=[[0,0.5],[1,0.5]];portConstraint=eastwest;" vertex="1" parent="xwgDeRf7Foe9UnqN_Oi5-5">
          <mxGeometry y="138" width="160" height="26" as="geometry" />
        </mxCell>
        <mxCell id="xwgDeRf7Foe9UnqN_Oi5-15" value="modificaSottocategoria()" style="text;align=left;verticalAlign=top;spacingLeft=4;spacingRight=4;overflow=hidden;rotatable=0;points=[[0,0.5],[1,0.5]];portConstraint=eastwest;" vertex="1" parent="xwgDeRf7Foe9UnqN_Oi5-5">
          <mxGeometry y="164" width="160" height="26" as="geometry" />
        </mxCell>
        <mxCell id="xwgDeRf7Foe9UnqN_Oi5-16" value="" style="rounded=0;orthogonalLoop=1;jettySize=auto;html=1;exitX=1;exitY=0.5;exitDx=0;exitDy=0;entryX=0;entryY=0.5;entryDx=0;entryDy=0;endArrow=none;endFill=0;" edge="1" parent="WIyWlLk6GJQsqaUBKTNV-1" source="zNbjggIn-LUsoocqGlM0-16" target="xwgDeRf7Foe9UnqN_Oi5-8">
          <mxGeometry relative="1" as="geometry">
            <mxPoint x="603" y="323" as="sourcePoint" />
            <mxPoint x="480" y="132" as="targetPoint" />
          </mxGeometry>
        </mxCell>
        <mxCell id="xwgDeRf7Foe9UnqN_Oi5-17" value="1" style="edgeLabel;html=1;align=center;verticalAlign=middle;resizable=0;points=[];" vertex="1" connectable="0" parent="xwgDeRf7Foe9UnqN_Oi5-16">
          <mxGeometry x="-0.681" y="-1" relative="1" as="geometry">
            <mxPoint as="offset" />
          </mxGeometry>
        </mxCell>
        <mxCell id="xwgDeRf7Foe9UnqN_Oi5-18" value="Molti" style="edgeLabel;html=1;align=center;verticalAlign=middle;resizable=0;points=[];" vertex="1" connectable="0" parent="xwgDeRf7Foe9UnqN_Oi5-16">
          <mxGeometry x="0.6704" y="-3" relative="1" as="geometry">
            <mxPoint as="offset" />
          </mxGeometry>
        </mxCell>
      </root>
    </mxGraphModel>
  </diagram>
</mxfile>
